<?xml version="1.0" encoding="UTF-8"?>
<!DOCTYPE svg PUBLIC "-//W3C//DTD SVG 1.1//EN" "http://www.w3.org/Graphics/SVG/1.1/DTD/svg11.dtd">
<!-- Creator: CorelDRAW -->
<svg xmlns="http://www.w3.org/2000/svg" xml:space="preserve" width="110.481mm" height="89.4366mm" version="1.1" style="shape-rendering:geometricPrecision; text-rendering:geometricPrecision; image-rendering:optimizeQuality; fill-rule:evenodd; clip-rule:evenodd"
viewBox="0 0 11048 8944"
 xmlns:xlink="http://www.w3.org/1999/xlink">
 <defs>
  <style type="text/css">
   <![CDATA[
    .fil13 {fill:#FFE39F;fill-rule:nonzero}
    .fil15 {fill:#FFB088;fill-rule:nonzero}
    .fil11 {fill:#FF9F3E;fill-rule:nonzero}
    .fil7 {fill:#FF9CC7;fill-rule:nonzero}
    .fil16 {fill:#FF737B;fill-rule:nonzero}
    .fil5 {fill:#DAE9E9;fill-rule:nonzero}
    .fil1 {fill:#F0D2FF;fill-rule:nonzero}
    .fil8 {fill:#E9FFA9;fill-rule:nonzero}
    .fil3 {fill:#E9D9F0;fill-rule:nonzero}
    .fil10 {fill:#E3D9FF;fill-rule:nonzero}
    .fil4 {fill:#ACD3E9;fill-rule:nonzero}
    .fil2 {fill:#BBB0FF;fill-rule:nonzero}
    .fil0 {fill:#B0FFF0;fill-rule:nonzero}
    .fil6 {fill:#9F92FF;fill-rule:nonzero}
    .fil12 {fill:#50FF92;fill-rule:nonzero}
    .fil9 {fill:#48FF9F;fill-rule:nonzero}
    .fil14 {fill:black;fill-rule:nonzero}
   ]]>
  </style>
 </defs>
 <g id="Layer_x0020_1">
  <metadata id="CorelCorpID_0Corel-Layer"/>
  <g id="vc065996.ai">
   <g>
    <g>
     <path class="fil0" d="M5811 2666c114,542 473,1084 766,1132 292,48 213,-304 387,-518 174,-214 520,-127 1019,-200 499,-73 626,-31 749,-357 123,-326 155,-674 -125,-1053 -279,-379 -401,-549 -896,-604 -494,-56 -1078,-152 -1345,77 -266,229 -410,627 -150,564 260,-64 508,-293 929,-240 420,53 623,42 662,448 40,406 -210,691 -431,700 -221,10 -348,-31 -791,6 -443,39 -805,-104 -774,45z"/>
     <path class="fil1" d="M1045 961c-137,136 -254,286 -354,443 -460,719 -555,1560 -498,1638 70,94 1162,-580 1478,-660 315,-79 -168,-411 -101,-721 67,-310 260,-560 578,-695 318,-134 523,-219 819,-244 294,-25 672,191 802,160 130,-32 27,-605 -190,-705 -861,97 -1718,116 -2534,784z"/>
     <path class="fil2" d="M9299 525c512,215 881,534 1144,901 247,342 400,727 490,1107 135,567 132,1123 88,1518 -36,328 -99,544 -133,561 -132,69 -1205,248 -1521,347 -316,98 -780,208 -943,129 -162,-80 -190,-320 -21,-406 169,-85 472,-313 703,-598 232,-285 342,-759 396,-1198 53,-439 -21,-901 -139,-1182 -117,-280 -2,-423 -66,-664 -64,-242 -143,-576 2,-515z"/>
     <path class="fil3" d="M6078 8251c21,164 12,148 195,173 183,26 1214,-8 1307,-41 93,-33 1948,-458 2029,-639 80,-181 62,-200 -160,-135 -224,65 -1843,591 -2192,559 -348,-32 -1193,-28 -1179,83z"/>
     <path class="fil4" d="M5324 4913c471,904 917,1469 1011,1914 93,445 125,557 125,557 0,0 572,-34 686,-139 114,-106 165,-472 308,-834 142,-362 682,-1004 711,-1278 29,-275 -287,-177 -600,-171 -313,6 -680,-8 -1060,-169 -380,-162 -659,-559 -846,-455 -188,103 -404,443 -335,575z"/>
     <path class="fil1" d="M4265 1857c155,404 209,780 199,1037 -10,257 -213,268 -202,470 11,203 -61,623 -13,809 48,185 227,303 426,384 200,81 542,278 628,-49 86,-328 192,-232 63,-697 -129,-464 -262,-837 -173,-1238 89,-401 399,-812 295,-963 -105,-151 -1273,116 -1223,247z"/>
     <path class="fil4" d="M3982 108c130,-28 267,-45 407,-57 259,-21 531,-24 800,-37 738,-36 1504,3 2143,66 723,70 1285,170 1460,223 418,126 337,822 189,835 -148,13 -741,-323 -1198,-395 -457,-74 -879,-90 -1271,42 -391,132 -708,249 -935,424 -227,175 -377,224 -783,282 -407,58 -704,139 -734,-46 -29,-185 -39,-425 -97,-813 -27,-176 -116,-280 -165,-351 -60,-86 -60,-122 184,-173z"/>
     <path class="fil5" d="M8998 5459c-369,501 -1279,2175 -1171,2235 108,59 1576,-326 1767,-520 165,-169 683,-1284 792,-1764 17,-75 24,-135 18,-172 -7,-43 -45,-67 -104,-78 -327,-58 -1302,299 -1302,299z"/>
     <path class="fil6" d="M7022 7598c-280,118 -801,264 -793,310 7,46 735,0 958,-56 222,-55 372,-114 237,-183 -136,-70 -402,-71 -402,-71z"/>
     <path class="fil7" d="M4480 7960c338,-98 875,-31 1066,13 191,44 235,110 230,221 -4,110 4,147 -99,207 -104,61 -481,55 -749,100 -268,45 -321,-21 -362,-152 -41,-130 -170,-365 -86,-389z"/>
     <path class="fil8" d="M3907 4711c80,178 282,324 167,430 -114,105 -224,101 -229,230 -5,128 631,2212 832,2256 200,45 897,90 1045,59 149,-31 258,10 237,-414 -20,-423 -776,-1795 -1095,-2119 -318,-325 -1008,-554 -957,-442z"/>
     <path class="fil9" d="M2269 4759c-1223,706 -1392,2226 -1162,2952 229,725 520,810 976,920 455,109 1743,85 1987,-53 245,-137 218,-414 54,-439 -165,-24 -515,-1 -826,-32 -312,-30 -847,23 -1098,-134 -252,-157 -417,-641 -387,-934 30,-293 153,-638 315,-540 162,99 -3,552 191,762 194,209 280,378 499,423 219,46 550,40 572,-70 23,-109 -89,-1032 -144,-1494 -56,-462 -92,-482 -229,-744 -137,-263 -278,62 -496,-20 -217,-81 -252,-597 -252,-597z"/>
     <path class="fil10" d="M1858 2518c-703,138 -1478,440 -1716,889 -78,148 -173,947 -132,1645 82,1438 431,3225 533,3464 63,148 158,214 244,230 120,23 222,-53 193,-139 -49,-150 -235,-580 -311,-969 -78,-389 2,-1507 208,-2069 205,-562 1014,-1027 1131,-1207 117,-180 134,-601 104,-786 -30,-185 -234,-120 -244,-341 -10,-221 10,-275 91,-474 82,-200 -101,-243 -101,-243z"/>
     <path class="fil11" d="M2034 1541c-186,67 -70,384 50,379 120,-4 206,-111 531,-191 325,-79 426,-66 702,-92 277,-26 503,83 457,-176 -45,-259 -168,-401 -454,-366 -286,35 -297,80 -549,171 -252,92 -222,38 -417,76 -194,39 -320,199 -320,199z"/>
     <path class="fil7" d="M2234 2091c9,147 98,547 86,620 -12,72 -133,114 -110,225 24,111 144,79 168,172 24,93 70,1289 165,1440 95,151 668,233 909,178 241,-55 152,-523 210,-576 57,-53 139,-31 190,-158 50,-127 -35,-773 -5,-837 30,-63 206,-102 247,-210 41,-109 -182,-1000 -248,-1187 -67,-186 -1270,34 -1411,130 -142,95 -207,111 -201,203z"/>
     <path class="fil12" d="M8410 5358c-301,191 -666,1041 -786,1312 -121,271 -240,965 -128,914 112,-51 430,-1123 661,-1408 232,-285 483,-607 507,-753 24,-146 -254,-65 -254,-65z"/>
     <path class="fil13" d="M5658 1860c256,-202 502,-146 665,-76 163,71 162,-159 522,-209 361,-51 663,-2 784,186 121,189 98,316 -26,431 -124,115 -328,162 -510,118 -182,-43 -282,-93 -543,25 -262,119 -238,203 -539,127 -300,-76 -395,12 -433,-201 -38,-212 80,-401 80,-401z"/>
     <path class="fil13" d="M7208 3629c181,-425 563,-300 799,-245 237,56 213,-37 464,-92 250,-55 217,91 176,190 -41,100 -121,290 -370,299 -248,9 -242,-157 -494,-56 -252,101 -194,268 -495,193 -300,-77 -80,-289 -80,-289z"/>
     <path class="fil14" d="M3939 1610c91,270 256,1241 270,1343 15,102 -162,141 -245,174 -85,34 69,592 31,838 -37,247 -314,282 -499,312 -185,30 -285,7 -422,-7 -138,-15 -106,106 4,129 109,22 266,19 469,-10 203,-29 488,-36 558,-392 68,-356 -75,-683 -35,-764 40,-82 194,-48 247,-212 52,-163 -213,-1396 -275,-1453 -62,-58 -103,42 -103,42z"/>
     <path class="fil14" d="M3706 2165c-120,32 -60,132 -6,153 55,20 154,0 158,-110 5,-110 -152,-43 -152,-43z"/>
     <path class="fil14" d="M2939 2288c-119,-14 -203,117 -131,148 72,30 188,29 191,-44 3,-74 -60,-104 -60,-104z"/>
     <path class="fil14" d="M3179 3685c170,108 568,41 614,34 47,-8 54,48 -40,108 -95,61 -186,48 -306,53 -120,4 -155,-34 -245,-83 -90,-50 -23,-112 -23,-112z"/>
     <path class="fil14" d="M3903 1351c-1,-212 -171,-328 -281,-342 -110,-13 -92,6 -263,-74 -172,-80 -217,-119 -431,-44 -214,74 -124,133 -256,201 -131,69 -84,24 -323,43 -240,18 -307,98 -339,198 -31,100 -47,35 -208,149 -160,113 -140,297 -97,363 44,66 105,151 154,80 49,-72 -62,-67 -75,-196 -14,-129 79,-162 164,-205 84,-43 130,-32 179,-113 49,-81 -33,-102 134,-142 167,-39 247,28 331,-5 84,-34 139,-32 226,-139 87,-107 170,-113 245,-156 75,-43 193,8 264,66 71,57 99,59 209,63 110,4 117,50 216,128 98,77 49,149 85,187 35,38 66,-62 66,-62z"/>
     <path class="fil14" d="M3634 1414c5,-137 -41,-130 -195,-182 -154,-52 -127,-51 -245,-83 -118,-32 -177,48 -95,70 82,21 154,61 291,85 137,23 69,131 123,161 54,29 121,-51 121,-51z"/>
     <path class="fil14" d="M2636 1321c148,-31 174,25 300,76 127,50 109,40 219,45 110,4 163,79 98,95 -66,16 -47,7 -147,-5 -101,-13 -129,-5 -218,-64 -90,-58 -125,-96 -191,-81 -65,16 -86,107 -120,23 -33,-84 59,-89 59,-89z"/>
     <path class="fil14" d="M2140 1550c187,-76 265,28 356,50 91,22 73,30 192,26 120,-5 164,61 80,86 -84,24 -140,40 -231,18 -91,-22 -117,-59 -226,-82 -110,-22 -122,51 -203,11 -81,-40 32,-109 32,-109z"/>
     <path class="fil14" d="M2006 2151c5,129 90,546 68,628 -21,82 -84,42 -143,141 -59,99 -8,203 26,278 34,74 161,106 227,63 66,-43 78,-107 13,-92 -65,17 -102,24 -137,-33 -34,-56 -50,-130 -21,-175 30,-44 66,-25 125,-124 59,-98 -42,-580 -66,-692 -23,-111 -92,6 -92,6z"/>
     <path class="fil14" d="M2217 3373c30,167 72,977 120,1181 47,204 95,151 98,68 3,-83 -76,-1133 -98,-1263 -23,-130 -120,14 -120,14z"/>
     <path class="fil14" d="M3713 4129c-7,184 -8,459 -2,533 7,74 51,103 82,31 30,-73 55,-485 41,-587 -15,-102 -121,23 -121,23z"/>
     <path class="fil14" d="M2359 4674c596,529 1225,185 1300,142 76,-43 78,-98 -6,-83 -83,16 -335,116 -537,108 -202,-7 -548,-104 -671,-237 -124,-134 -86,70 -86,70z"/>
     <path class="fil14" d="M2422 4484c-1112,232 -1620,1353 -1669,2040 -68,958 -72,1972 902,2304 172,59 375,96 614,108 145,7 297,9 449,7 799,-10 1617,-126 1680,-155 75,-34 58,-89 -43,-93 -100,-4 -1540,162 -2054,132 -1404,-81 -1536,-1190 -1391,-2324 53,-421 397,-1605 1545,-1926 28,-8 103,-51 59,-90 -45,-38 -92,-3 -92,-3z"/>
     <path class="fil14" d="M1986 6728c-147,712 266,1082 619,1215 354,133 1316,-23 1418,-47 102,-23 139,-146 28,-123 -111,23 -1027,154 -1344,49 -318,-104 -694,-366 -620,-1081 0,0 48,-53 -34,-75 -82,-21 -67,62 -67,62z"/>
     <path class="fil14" d="M4124 4439c1709,507 2155,2767 2146,2988 -8,220 -102,271 -116,160 -14,-110 -176,-1164 -769,-1978 -594,-813 -1176,-983 -1285,-1024 -109,-41 24,-146 24,-146z"/>
     <path class="fil14" d="M6009 8023c330,-6 1104,-31 1289,-60 185,-30 2518,-588 2518,-588 0,0 226,-24 76,63 -150,86 -2322,609 -2543,637 -222,28 -1102,90 -1249,67 -146,-24 -91,-119 -91,-119z"/>
     <path class="fil14" d="M5844 1382c-358,391 -576,970 -499,1647 78,676 399,1353 1135,1613 735,260 1386,161 1874,-117 487,-277 819,-731 939,-1202 120,-471 112,-1015 -85,-1473 -198,-458 -584,-829 -1231,-959 -1246,-249 -1551,110 -1681,200 -129,90 -61,152 100,62 161,-91 692,-403 1558,-137 435,135 831,347 1059,711 229,365 289,876 155,1494 -134,619 -494,1028 -1014,1249 -521,221 -1199,238 -1639,66 -439,-173 -766,-612 -938,-1160 -171,-548 -135,-1192 355,-1948 0,0 73,-64 50,-128 -22,-63 -138,82 -138,82z"/>
     <path class="fil14" d="M8424 1148c815,822 522,2208 -252,2730 -774,522 -2459,356 -2584,-1414 0,0 6,-156 -73,6 -80,163 38,1399 1119,1716 1082,318 1819,-187 2165,-826 346,-640 296,-1478 70,-1827 -225,-348 -445,-385 -445,-385z"/>
     <path class="fil14" d="M7127 3332c196,-305 587,-207 686,-149 99,60 133,126 253,112 120,-14 87,-107 245,-166 159,-58 311,59 368,15 57,-44 49,-81 -33,-112 -82,-31 -311,-39 -396,12 -84,52 -143,151 -190,158 -46,8 -107,-86 -261,-139 -154,-51 -237,-45 -404,-15 -166,31 -241,74 -318,153 -77,80 50,131 50,131z"/>
     <path class="fil14" d="M6084 1545c370,-68 554,160 717,221 163,61 305,-34 583,-106 279,-72 424,-12 578,49 154,62 195,-47 86,-79 -110,-32 -392,-98 -557,-95 -166,3 -476,184 -586,161 -109,-22 -234,-128 -424,-200 -191,-71 -227,-73 -366,-41 -139,31 -31,90 -31,90z"/>
     <path class="fil14" d="M4272 7772c563,-70 1204,1 1422,74 218,72 252,120 297,149 45,29 -29,54 -25,173 5,120 31,158 -18,230 -48,71 32,125 -61,167 -94,42 -47,22 -269,50 -221,28 -324,61 -582,78 -258,18 -471,47 -543,25 -73,-21 -42,-98 50,-112 93,-15 428,-21 558,-35 129,-13 318,-33 466,-64 148,-31 175,-12 242,-73 67,-62 40,-81 42,-146 3,-64 31,-86 52,-140 20,-55 74,-16 3,-92 -70,-76 -162,-89 -262,-130 -99,-40 -682,-58 -838,-74 -155,-14 -365,55 -483,32 -119,-22 -51,-112 -51,-112z"/>
     <path class="fil14" d="M4156 7791c342,427 214,900 203,955 -12,54 127,32 138,-23 12,-55 -9,-726 -159,-870 -151,-144 -182,-62 -182,-62z"/>
     <path class="fil14" d="M5132 7985c406,-21 732,111 795,132 64,20 88,113 -30,63 -117,-51 -602,-125 -713,-111 -111,14 -52,-84 -52,-84z"/>
     <path class="fil14" d="M5308 8189c221,-10 451,-1 559,40 109,41 133,134 34,84 -99,-50 -449,-26 -569,-22 -120,5 -24,-102 -24,-102z"/>
     <path class="fil14" d="M5292 8367c222,-46 477,28 541,40 64,12 70,85 -30,63 -100,-22 -228,-55 -403,-43 -175,12 -108,-60 -108,-60z"/>
     <path class="fil14" d="M7468 7840c65,-254 1160,-2437 1406,-2612 217,-153 1526,-351 1928,-353 53,-1 91,2 108,9 28,12 10,103 -39,241 -199,566 -902,1933 -949,2020 -60,108 -175,250 -132,87 35,-135 664,-1417 906,-1959 54,-121 88,-206 92,-232 5,-30 -59,-40 -166,-37 -426,12 -1533,240 -1684,351 -189,140 -1277,2350 -1372,2439 -95,88 -98,46 -98,46z"/>
     <path class="fil14" d="M5727 8656c331,-6 1434,-18 1528,-52 93,-33 2416,-679 2511,-748 94,-71 27,-124 -122,-74 -149,49 -2273,680 -2404,712 -129,31 -1118,35 -1358,62 -240,28 -155,100 -155,100z"/>
     <path class="fil14" d="M7314 8019c-9,238 -42,623 -8,698 34,74 111,-15 115,-124 4,-111 19,-496 23,-606 4,-111 -130,32 -130,32z"/>
     <path class="fil14" d="M5849 7861c270,-91 906,-370 1082,-400 176,-30 920,-20 1039,-5 119,13 -41,117 -105,115 -65,-3 -822,-27 -924,-4 -102,24 -891,338 -984,362 -93,24 -108,-68 -108,-68z"/>
     <path class="fil15" d="M2925 5027c185,288 414,218 453,422 38,204 141,2064 191,2177 51,112 546,159 687,63 142,-96 -605,-2193 -617,-2340 -13,-148 133,-345 71,-420 -61,-76 -233,73 -316,79 -82,6 -530,-75 -469,19z"/>
     <path class="fil10" d="M5894 3961c569,959 1849,678 2225,453 377,-224 624,-454 823,-832 198,-379 354,-1071 245,-1131 -108,-59 -351,1016 -565,1320 -214,305 -420,407 -792,503 -371,96 -465,148 -848,78 -384,-70 -457,-91 -761,-305 -304,-214 -327,-86 -327,-86z"/>
     <path class="fil16" d="M2736 2830c-172,96 -76,280 29,245 104,-35 134,-149 98,-215 -36,-66 -127,-30 -127,-30z"/>
    </g>
   </g>
  </g>
 </g>
</svg>
