<?xml version="1.0" encoding="UTF-8"?>
<!DOCTYPE svg PUBLIC "-//W3C//DTD SVG 1.1//EN" "http://www.w3.org/Graphics/SVG/1.1/DTD/svg11.dtd">
<!-- Creator: CorelDRAW -->
<svg xmlns="http://www.w3.org/2000/svg" xml:space="preserve" width="144.66mm" height="75.5974mm" version="1.1" style="shape-rendering:geometricPrecision; text-rendering:geometricPrecision; image-rendering:optimizeQuality; fill-rule:evenodd; clip-rule:evenodd"
viewBox="0 0 14466 7560"
 xmlns:xlink="http://www.w3.org/1999/xlink">
 <defs>
  <style type="text/css">
   <![CDATA[
    .fil0 {fill:#FFFFC2;fill-rule:nonzero}
    .fil18 {fill:#FFF07D;fill-rule:nonzero}
    .fil5 {fill:#FFE9BB;fill-rule:nonzero}
    .fil11 {fill:#FFD292;fill-rule:nonzero}
    .fil23 {fill:#FFABB3;fill-rule:nonzero}
    .fil19 {fill:#FFA9BB;fill-rule:nonzero}
    .fil14 {fill:#FF9F3E;fill-rule:nonzero}
    .fil22 {fill:#FF88E3;fill-rule:nonzero}
    .fil21 {fill:#FF36A9;fill-rule:nonzero}
    .fil3 {fill:#E9FFA9;fill-rule:nonzero}
    .fil7 {fill:#E6E6FF;fill-rule:nonzero}
    .fil8 {fill:#E3C2F0;fill-rule:nonzero}
    .fil4 {fill:#D2B0FF;fill-rule:nonzero}
    .fil1 {fill:#C2FFC2;fill-rule:nonzero}
    .fil17 {fill:#BBFFC2;fill-rule:nonzero}
    .fil15 {fill:#B0FFF0;fill-rule:nonzero}
    .fil6 {fill:#B0D2F0;fill-rule:nonzero}
    .fil16 {fill:#9FE9FF;fill-rule:nonzero}
    .fil13 {fill:#9FD9FF;fill-rule:nonzero}
    .fil9 {fill:#71FFF0;fill-rule:nonzero}
    .fil10 {fill:#71D2FF;fill-rule:nonzero}
    .fil12 {fill:#50A9FF;fill-rule:nonzero}
    .fil2 {fill:#00E920;fill-rule:nonzero}
    .fil20 {fill:black;fill-rule:nonzero}
   ]]>
  </style>
 </defs>
 <g id="Layer_x0020_1">
  <metadata id="CorelCorpID_0Corel-Layer"/>
  <g id="vc066023.ai">
   <g>
    <g>
     <path class="fil0" d="M6730 2820c-801,273 -762,1211 -137,1563 626,352 1056,196 1231,-332 176,-528 137,-1036 -254,-1290 -391,-254 -840,59 -840,59z"/>
     <path class="fil1" d="M12377 162c0,235 0,615 79,508 78,-107 273,-352 234,-469 -18,-55 -89,-84 -158,-91 -78,-9 -155,11 -155,52z"/>
     <path class="fil2" d="M12866 426c-215,98 -352,508 -332,626 20,117 185,-226 274,-353 87,-127 58,-273 58,-273z"/>
     <path class="fil3" d="M12104 299c-68,176 117,430 147,537 29,108 48,-97 0,-342 -49,-244 -147,-195 -147,-195z"/>
     <path class="fil4" d="M11391 211c44,284 175,811 244,889 68,78 469,117 498,49 30,-68 -127,-205 -185,-372 -59,-165 -30,-439 -127,-556 -42,-51 -132,-83 -219,-93 -114,-14 -223,11 -211,83z"/>
     <path class="fil3" d="M13579 2204c-44,221 -39,557 49,606 88,49 284,-39 372,147 87,185 -303,1006 -264,1162 39,157 518,69 605,10 52,-34 73,-549 72,-1098 0,-385 -12,-786 -32,-1051 -28,-354 -180,-775 -356,-1108 -146,-273 -307,-488 -426,-554 -264,-146 -352,-195 -362,-58 -9,137 -9,322 -97,469 -88,147 -323,342 -254,381 68,39 605,-68 723,29 117,98 68,772 48,919 -19,146 -58,49 -78,146z"/>
     <path class="fil5" d="M13403 6357c245,-195 303,-381 137,-635 -166,-254 -362,-186 -723,-176 -361,10 -664,49 -830,-10 -166,-59 -264,-332 -284,-586 -19,-254 -156,-489 108,-499 264,-9 987,10 1221,-19 235,-29 508,-29 772,-118 264,-87 508,-67 586,50 60,89 97,241 63,573 -10,103 -28,224 -53,365 -33,183 -52,328 -69,446 -38,267 -65,402 -214,550 -215,215 -528,284 -626,284 -97,0 -88,-225 -88,-225z"/>
     <path class="fil5" d="M4561 641c641,-275 1625,-441 2642,-530 1120,-99 2280,-105 3065,-61 524,29 881,81 946,141 255,235 313,1720 118,1779 -196,58 -586,-235 -801,-235 -215,0 -342,196 -460,78 -117,-117 -58,-664 -234,-723 -176,-58 -2423,-58 -3244,-19 -821,39 -1466,39 -1681,137 -214,98 -175,273 -293,176 -117,-98 -332,-626 -58,-743z"/>
     <path class="fil1" d="M9524 6269c430,-137 450,-156 626,-372 176,-215 -137,-2950 -39,-3263 97,-312 313,-469 586,-352 274,118 489,977 489,1720 0,743 97,1622 332,1779 234,156 1368,-40 1368,175 0,215 654,587 439,684 -103,47 -660,202 -1260,342 -651,153 -1420,156 -1603,186 -351,58 -645,-528 -781,-625 -137,-98 -157,-274 -157,-274z"/>
     <path class="fil3" d="M5968 7070c840,254 3048,-19 3556,-78 509,-59 704,157 333,293 -224,83 -976,137 -1681,179 -468,29 -915,52 -1172,75 -646,59 -938,-19 -1114,-97 -176,-79 78,-372 78,-372z"/>
     <path class="fil1" d="M4190 2322c-20,586 156,2677 195,2794 39,117 117,215 137,-20 19,-234 -78,-2598 -118,-2852 -39,-255 -214,78 -214,78z"/>
     <path class="fil4" d="M1942 4432c132,113 283,264 322,205 39,-58 39,-156 -29,-215 -68,-58 -361,-48 -293,10z"/>
     <path class="fil5" d="M496 4696c564,1973 4397,2697 4827,2736 430,39 488,-332 313,-450 -176,-117 -372,-312 -352,-410 19,-98 0,-234 -137,-313 -137,-78 -333,-58 -489,-312 -156,-254 -19,-450 -254,-548 -234,-97 -488,-176 -879,-58 -391,117 -918,98 -1075,19 -156,-78 -195,-322 -606,-400 -410,-78 -713,-303 -1026,-362 -312,-59 -400,-176 -322,98z"/>
     <path class="fil6" d="M6007 6416c-36,213 -98,195 -20,293 79,97 2306,215 2795,39 488,-176 137,-371 19,-352 -117,20 -1465,98 -1797,58 -333,-38 -978,-156 -997,-38z"/>
     <path class="fil7" d="M9055 2019c0,885 78,2970 20,3263 -59,293 -586,274 -879,332 -294,59 -2267,-97 -2443,-97 -176,0 -332,78 -215,273 117,196 2208,313 2755,274 548,-39 1212,-254 1349,-410 137,-157 0,-3792 -79,-3948 -78,-156 -136,-195 -195,-78 -59,117 -313,136 -313,391z"/>
     <path class="fil8" d="M4893 1667c-195,1365 78,3654 156,3869 78,215 391,137 333,0 -59,-137 -294,-2482 -274,-2912 19,-429 195,-683 371,-762 176,-78 2541,-19 2912,20 371,39 742,39 704,-137 -40,-176 -626,-215 -919,-234 -293,-20 -3224,-254 -3283,156z"/>
     <path class="fil9" d="M7375 2117c410,19 996,58 1231,292 235,235 235,2033 137,2111 -98,78 -567,156 -626,59 -58,-98 20,-548 40,-958 19,-410 19,-703 -157,-957 -176,-255 -567,-216 -684,-293 -117,-79 59,-254 59,-254z"/>
     <path class="fil10" d="M5596 2429c-69,623 118,2247 215,2540 98,293 2756,293 2873,118 117,-176 -39,-391 -254,-372 -215,20 -743,79 -1134,118 -390,38 -820,38 -1036,-78 -214,-118 -429,-782 -410,-1056 20,-273 79,-957 332,-1114 255,-156 822,-176 900,-274 78,-97 0,-116 -372,-175 -371,-59 -1094,117 -1114,293z"/>
     <path class="fil11" d="M12651 2273c-13,127 -39,674 10,781 49,108 586,127 615,30 30,-98 -9,-675 -78,-802 -68,-127 -537,-107 -547,-9z"/>
     <path class="fil12" d="M11733 2331c36,242 -10,762 49,792 58,29 508,19 547,-39 39,-59 136,-782 0,-870 -137,-88 -626,-78 -596,117z"/>
     <path class="fil13" d="M11703 1823c-9,127 -39,205 68,205 108,0 440,-19 519,-68 78,-49 87,-137 0,-166 -88,-30 -587,29 -587,29z"/>
     <path class="fil13" d="M12622 1354c-10,127 -59,225 10,245 68,19 586,9 644,-69 59,-78 40,-156 -58,-186 -98,-29 -596,10 -596,10z"/>
     <path class="fil14" d="M12632 1774c-102,59 -30,127 19,176 49,49 606,39 665,-9 58,-49 87,-118 0,-137 -88,-20 -616,-69 -684,-30z"/>
     <path class="fil14" d="M11742 1364c-9,176 -9,186 79,205 87,20 283,-39 381,-39 97,0 127,-49 88,-127 -39,-78 -548,-39 -548,-39z"/>
     <path class="fil15" d="M11508 3289c-18,254 108,782 195,830 88,49 1613,10 1681,-78 68,-88 273,-801 195,-830 -78,-30 -2061,-59 -2071,78z"/>
     <path class="fil16" d="M3193 4549c9,147 0,381 59,430 58,49 205,-10 224,-87 20,-79 49,-255 -49,-284 -97,-29 -234,-59 -234,-59z"/>
     <path class="fil17" d="M2518 4403c10,215 -9,547 69,616 78,68 342,38 362,-30 19,-68 19,-469 0,-538 -20,-68 -59,-107 -177,-107 -117,0 -254,59 -254,59z"/>
     <path class="fil18" d="M3564 2468c29,127 0,284 88,401 88,117 147,185 156,390 10,206 -156,352 -127,420 30,69 118,128 157,313 39,186 -10,362 -88,440 -78,78 -39,460 9,498 49,39 206,-19 245,-88 38,-68 0,-1016 -10,-1455 -10,-440 -10,-684 -98,-880 -88,-196 -332,-39 -332,-39z"/>
     <path class="fil4" d="M3134 2468c-19,108 20,391 20,391 0,0 253,10 253,-59 0,-69 -9,-224 -77,-332 -69,-107 -196,0 -196,0z"/>
     <path class="fil17" d="M2411 2693c10,-117 78,-166 166,-186 88,-19 273,-78 303,-19 29,58 127,215 29,185 -97,-29 -283,-19 -351,-9 -69,9 -147,29 -147,29z"/>
     <path class="fil19" d="M3382 3763c-596,137 -547,421 -322,655 225,235 811,10 722,-362 -87,-371 -400,-293 -400,-293z"/>
     <path class="fil13" d="M3265 2874c-469,88 -498,548 -195,743 303,195 660,33 631,-387 -29,-420 -436,-356 -436,-356z"/>
     <path class="fil20" d="M3412 2445c48,312 107,2393 156,2501 49,107 98,58 88,-108 -10,-166 -78,-2247 -127,-2364 -49,-118 -117,-29 -117,-29z"/>
     <path class="fil20" d="M5287 2210c-20,586 -20,2912 196,3107 215,195 3009,176 3204,78 196,-98 137,-98 -58,-117 -98,-10 -833,51 -1534,39 -701,-13 -1368,-98 -1456,-156 -176,-118 -215,-2756 -254,-2951 -39,-195 -98,0 -98,0z"/>
     <path class="fil20" d="M5658 1975c1466,-195 2951,-39 3186,137 234,176 234,2892 156,3049 -78,156 -98,39 -98,-39 0,-79 10,-2687 -127,-2883 -137,-195 -2638,-254 -3058,-127 -420,127 -59,-137 -59,-137z"/>
     <path class="fil20" d="M4525 1594c20,626 39,3879 293,4309 254,430 4143,801 5276,-137 0,0 -39,-98 -137,-39 -97,59 -1055,489 -2491,479 -1436,-10 -2315,-264 -2491,-401 -176,-137 -293,-4006 -313,-4201 -19,-195 -137,-10 -137,-10z"/>
     <path class="fil20" d="M5151 1243c341,-20 4543,10 4650,48 107,40 196,3967 185,4114 -9,146 -78,146 -87,98 -10,-49 -176,-4016 -215,-4085 -39,-68 -4338,-19 -4494,-58 -157,-39 -39,-117 -39,-117z"/>
     <path class="fil20" d="M5765 5913c0,234 -28,674 -19,742 10,69 88,98 127,0 40,-97 49,-644 40,-723 -11,-78 -148,-19 -148,-19z"/>
     <path class="fil20" d="M9019 6294c10,205 40,352 69,420 29,68 127,68 117,-59 -10,-127 -10,-352 -49,-410 -39,-59 -137,49 -137,49z"/>
     <path class="fil20" d="M5522 6753c586,508 3653,352 3927,29 274,-322 -9,-351 -107,-351 -98,0 -156,117 -49,137 107,19 127,38 58,136 -68,97 -1729,342 -2530,245 -801,-98 -1075,-148 -1172,-254 -98,-108 78,-89 137,-157 58,-68 29,-107 -88,-107 -118,0 -225,68 -225,195 0,127 49,127 49,127z"/>
     <path class="fil21" d="M6909 3607c382,-79 645,-401 431,-674 -215,-273 -792,-19 -812,498 -19,518 479,997 1075,753 596,-245 635,-1241 78,-1583 -556,-343 -1407,-59 -1621,459 -215,518 -157,1407 527,1612 684,205 1192,-59 1290,-156 98,-98 49,-166 -29,-147 -78,20 -577,440 -1183,156 -605,-283 -635,-1045 -489,-1407 148,-361 968,-762 1447,-400 479,362 410,1104 -29,1299 -440,196 -987,-97 -919,-586 69,-488 420,-517 557,-440 136,79 -98,450 -332,470 -235,19 9,146 9,146z"/>
     <path class="fil20" d="M2278 2464c127,-10 1544,-156 1652,-127 107,29 234,2442 214,2559 -19,118 -1484,206 -1611,245 -128,39 -176,107 -30,117 147,10 1612,-107 1729,-273 118,-166 -127,-2658 -185,-2746 -59,-88 -1564,19 -1749,98 -186,78 -20,127 -20,127z"/>
     <path class="fil20" d="M2337 4105c10,264 39,899 68,967 30,69 98,20 98,-58 0,-78 -49,-811 -68,-889 -20,-78 -98,-20 -98,-20z"/>
     <path class="fil20" d="M2210 2415c20,68 -10,186 29,274 39,88 98,78 98,0 0,-79 10,-206 -20,-284 -29,-78 -107,10 -107,10z"/>
     <path class="fil20" d="M10095 2132c439,-528 1055,-166 1182,430 127,596 254,2501 439,2882 186,381 1271,59 1554,195 283,137 244,547 137,596 -108,49 -196,-49 -108,-78 88,-29 127,-293 -58,-391 -186,-98 -1319,225 -1622,-235 -303,-459 -323,-2598 -469,-2969 -147,-372 -459,-811 -909,-362 0,0 -9,78 -98,39 -87,-39 -48,-107 -48,-107z"/>
     <path class="fil20" d="M11531 1272c0,403 88,2393 98,2462 10,69 1710,10 1817,-39 108,-49 59,-88 -10,-88 -68,0 -1632,88 -1680,49 -49,-39 -108,-2296 -117,-2374 -10,-78 -108,-98 -108,-10z"/>
     <path class="fil20" d="M11414 2151c293,10 2071,59 2120,-39 49,-97 39,-879 -68,-918 -108,-39 -1525,29 -1681,19 -156,-9 -185,127 -49,108 137,-20 1540,-50 1629,-1 87,49 97,625 38,694 -58,68 -1852,20 -1950,49 -98,30 -39,88 -39,88z"/>
     <path class="fil20" d="M13378 2229c0,88 29,1114 19,1232 -10,117 98,117 118,58 19,-58 -20,-1241 -30,-1309 -10,-68 -107,19 -107,19z"/>
     <path class="fil22" d="M12430 1076c0,382 -29,2414 20,2482 49,68 87,-59 87,-59 0,0 -19,-2295 -19,-2393 0,-98 -88,-30 -88,-30z"/>
     <path class="fil22" d="M11815 1653c312,0 1309,-39 1455,-49 146,-10 94,117 26,126 -68,10 -1403,11 -1492,11 -87,0 11,-88 11,-88z"/>
     <path class="fil20" d="M11443 3050c254,-39 2335,-59 2443,-49 107,10 -303,1212 -371,1241 -69,29 -2159,118 -2277,98 -117,-20 -88,-88 29,-107 118,-20 2081,-49 2160,-79 78,-29 342,-986 332,-1036 -10,-48 -2198,40 -2277,40 -78,0 -39,-108 -39,-108z"/>
     <path class="fil23" d="M1366 4390c-288,6 -898,-266 -1022,-277 -125,-10 -67,-197 -25,-324 43,-127 90,-401 212,-466 122,-64 202,-87 389,-114 186,-28 710,-88 877,-77 167,9 260,21 299,116 40,95 13,290 38,402 25,112 82,222 -35,309 -117,87 -270,144 -384,179 -115,35 -205,13 -237,100 -32,87 5,149 -112,152z"/>
     <path class="fil20" d="M87 4378c529,5 1501,396 1802,504 302,106 342,32 372,-46 30,-77 -140,-161 -132,-106 7,54 -87,52 -210,32 -122,-20 -790,-314 -939,-352 -150,-37 -579,-144 -756,-157 -177,-12 -224,50 -224,50l87 75z"/>
     <path class="fil20" d="M2139 4774c-103,-99 -484,-269 -551,-339 -68,-69 -30,-135 45,-95 74,40 521,290 616,377 94,87 54,119 -3,137 -57,17 -107,-80 -107,-80z"/>
     <path class="fil20" d="M1640 4395c294,-74 1311,-74 1598,-204 287,-130 45,-222 5,-232 -40,-10 -100,60 -100,60 0,0 115,-35 85,42 -30,78 -1124,132 -1201,145 -78,12 -349,40 -439,102 -90,62 52,87 52,87z"/>
     <path class="fil20" d="M3166 4014c-145,-15 -813,-13 -870,-37 -58,-25 -33,-83 57,-103 90,-20 770,12 895,65 125,53 48,108 7,97 -39,-9 -89,-22 -89,-22z"/>
     <path class="fil20" d="M2301 3914c286,-87 932,-127 1132,-204 199,-77 77,-224 29,-247 -47,-22 -112,25 -112,25 0,0 63,47 18,100 -45,52 -504,107 -626,129 -122,23 -391,83 -454,120 -62,37 13,77 13,77z"/>
     <path class="fil20" d="M3407 3513c-271,-15 -1019,52 -1101,42 -82,-10 -85,-42 -3,-75 83,-32 594,-84 813,-72 220,13 304,13 369,50 64,38 -78,55 -78,55z"/>
     <path class="fil20" d="M2270 3525c-62,-47 78,-139 166,-191 87,-53 603,-83 705,-110 102,-28 234,-90 199,-120 -34,-30 38,-107 100,-18 62,91 -72,205 -132,232 -60,28 -563,51 -651,103 -87,52 -272,70 -314,112 -42,42 -73,-8 -73,-8z"/>
     <path class="fil20" d="M3378 3124c-302,-65 -1000,57 -1064,63 -65,4 -108,-38 -36,-73 73,-35 534,-100 748,-109 215,-10 302,-21 372,39 69,60 -20,80 -20,80z"/>
     <path class="fil20" d="M2241 3136c222,-39 571,-122 656,-249 84,-127 -173,-181 -215,-138 -42,42 -70,88 -10,103 60,15 112,-25 112,18 0,42 -436,135 -516,157 -79,22 -146,79 -109,100 37,20 82,9 82,9z"/>
     <path class="fil20" d="M2672 2852c-257,52 -997,132 -1244,187 -246,55 -722,53 -805,42 -82,-9 -85,-84 -27,-102 57,-17 588,-22 885,-64 296,-43 1022,-169 1179,-162 157,8 12,99 12,99z"/>
     <path class="fil20" d="M13189 5937c-186,-10 -225,166 -98,225 127,58 215,-69 205,-157 -10,-88 -107,-68 -107,-68z"/>
     <path class="fil20" d="M3024 4319c27,-48 72,-50 112,-32 7,300 11,528 11,571 0,137 -38,214 -87,107 -18,-39 -28,-301 -36,-646z"/>
     <path class="fil20" d="M2962 2454c0,0 88,-117 108,10 5,34 12,211 20,453 -8,6 -16,13 -25,20 -33,28 -58,47 -78,57 -6,-219 -14,-410 -25,-540z"/>
     <path class="fil3" d="M613 2673c0,-645 98,-1035 958,-1485 859,-449 2599,-586 2755,-489 157,98 78,1193 -39,1310 -117,117 -469,59 -821,59 -351,0 -1036,0 -1211,97 -176,98 -118,352 -254,411 -137,58 -450,176 -958,254 -508,78 -430,-157 -430,-157z"/>
     <path class="fil5" d="M11019 1843c343,342 343,996 401,1055 59,59 49,0 49,-371 0,-372 0,-694 -29,-1134 -30,-439 -215,-616 -391,-488 -176,127 -30,938 -30,938z"/>
     <path class="fil22" d="M12293 1116c-433,-482 -441,-937 -299,-1074 34,-33 76,-48 123,-40 245,38 310,678 310,844 0,166 -46,191 -65,104 -20,-88 -69,-762 -216,-811 -45,-16 -77,6 -98,49 -45,96 -30,298 30,439 88,205 205,264 264,401 59,136 -49,88 -49,88z"/>
     <path class="fil22" d="M12391 1125c121,-564 305,-893 476,-953 62,-23 123,-8 179,45 204,195 -294,938 -420,1045 -127,108 -118,10 -30,-88 88,-98 391,-635 371,-811 -9,-89 -32,-105 -69,-83 -35,22 -84,80 -146,142 -126,127 -215,596 -274,703 -58,108 -87,0 -87,0z"/>
    </g>
   </g>
  </g>
 </g>
</svg>
